{"title":"Ludwig - Requiem fuer einen jungfraeulichen Koenig","uid":5380224,"size":2017473452,"categoryP":"video","categoryS":"movies","magnet":"?xt=urn:btih:1c7ddfefdf7c51b463ae8f245da0c1018d7506f1&amp;dn=Ludwig+-+Requiem+fuer+einen+jungfraeulichen+Koenig&amp;tr=udp%3A%2F%2Ftracker.openbittorrent.com%3A80&amp;tr=udp%3A%2F%2Fopen.demonii.com%3A1337&amp;tr=udp%3A%2F%2Ftracker.coppersurfer.tk%3A6969&amp;tr=udp%3A%2F%2Fexodus.desync.com%3A6969","seeders":2,"leechers":0,"uploader":"mfccorrea","files":10,"time":1266708960,"description":"This film is a difficult combination of symbolic tableaux and more ordinary documentary considerations about the life of Ludwig II of Bavaria, known as the &quot;Mad King&quot; of Bavaria. For those unfamiliar with his story, Ludwig II, the last king of Bavaria, sold the kingdom to Germany for a huge sum of money, with which he built a number of fantastic, fairy-tale castles. He was one of Richard Wagner's main financial sponsors, was a notoriously unrequited homosexual, and many believe that he met his death through assassination. This is the first part of director Hans-Jurgen Syberberg's &quot;German&quot; trilogy, followed by Karl May, and Hitler, A Film From Germany all of them highly surreal films, rich with brilliant imagery. \n\nPart 1\n\n   General\n      Complete name : Ludwig - Requiem fuer einen jungfraeulichen Koenig 1.avi\n      Format : AVI\n      Format/Info : Audio Video Interleave\n      File size : 1.00 GiB\n      Duration : 1h 12mn\n      Overall bit rate : 1 980 Kbps\n      Writing application : VirtualDubMod 1.5.10.2 (build 2540/release)\n      Writing library : VirtualDubMod build 2540/release\n   Video #0\n      ID : 0\n      Format : MPEG-4 Visual\n      Format profile : AdvancedSimple@L5\n      Format settings, BVOP : Yes\n      Format settings, QPel : No\n      Format settings, GMC : No warppoints\n      Format settings, Matrix : Default (MPEG)\n      Codec ID : XVID\n      Codec ID/Hint : XviD\n      Duration : 1h 12mn\n      Bit rate : 1 745 Kbps\n      Width : 640 pixels\n      Height : 472 pixels\n      Display aspect ratio : 4:3\n      Frame rate : 29.970 fps\n      Resolution : 24 bits\n      Colorimetry : 4:2:0\n      Scan type : Progressive\n      Bits/(Pixel*Frame) : 0.193\n      Stream size : 906 MiB (88%)\n      Writing library : XviD 1.2.1 (UTC 2008-12-04)\n   Audio #1\n      ID : 1\n      Format : AC-3\n      Format/Info : Audio Coding 3\n      Codec ID : 2000\n      Duration : 1h 12mn\n      Bit rate mode : Constant\n      Bit rate : 224 Kbps\n      Channel(s) : 2 channels\n      Channel positions : L R\n      Sampling rate : 48.0 KHz\n      Stream size : 116 MiB (11%)\n      Alignment : Split accross interleaves\n      Interleave, duration : 33 ms (1.00 video frame)\n      Interleave, preload duration : 500 ms\n\nPart 2 \n\n  General\n      Complete name : Ludwig - Requiem fuer einen jungfraeulichen Koenig 2.avi\n      Format : AVI\n      Format/Info : Audio Video Interleave\n      File size : 867 MiB\n      Duration : 1h 1mn\n      Overall bit rate : 1 979 Kbps\n      Writing application : VirtualDubMod 1.5.10.2 (build 2540/release)\n      Writing library : VirtualDubMod build 2540/release\n   Video #0\n      ID : 0\n      Format : MPEG-4 Visual\n      Format profile : AdvancedSimple@L5\n      Format settings, BVOP : Yes\n      Format settings, QPel : No\n      Format settings, GMC : No warppoints\n      Format settings, Matrix : Default (MPEG)\n      Codec ID : XVID\n      Codec ID/Hint : XviD\n      Duration : 1h 1mn\n      Bit rate : 1 744 Kbps\n      Width : 640 pixels\n      Height : 472 pixels\n      Display aspect ratio : 4:3\n      Frame rate : 29.970 fps\n      Resolution : 24 bits\n      Colorimetry : 4:2:0\n      Scan type : Progressive\n      Bits/(Pixel*Frame) : 0.193\n      Stream size : 764 MiB (88%)\n      Writing library : XviD 1.2.1 (UTC 2008-12-04)\n   Audio #1\n      ID : 1\n      Format : AC-3\n      Format/Info : Audio Coding 3\n      Codec ID : 2000\n      Duration : 1h 1mn\n      Bit rate mode : Constant\n      Bit rate : 224 Kbps\n      Channel(s) : 2 channels\n      Channel positions : L R\n      Sampling rate : 48.0 KHz\n      Stream size : 98.2 MiB (11%)\n      Alignment : Split accross interleaves\n      Interleave, duration : 33 ms (1.00 video frame)\n      Interleave, preload duration : 500 ms\n\nGerman audio; English and Portuguese srt subtitles, multilanguage subpack (English, French, Deutsch, Spanish, Portuguese, Russian)\n\nIMDB: tt0068884\n\nPosted originally at Karagarga by peppermint","torrent":{"xt":"urn:btih:1c7ddfefdf7c51b463ae8f245da0c1018d7506f1","amp;dn":"Ludwig+-+Requiem+fuer+einen+jungfraeulichen+Koenig","amp;tr":["udp%3A%2F%2Ftracker.openbittorrent.com%3A80","udp%3A%2F%2Fopen.demonii.com%3A1337","udp%3A%2F%2Ftracker.coppersurfer.tk%3A6969","udp%3A%2F%2Fexodus.desync.com%3A6969"],"infoHash":"1c7ddfefdf7c51b463ae8f245da0c1018d7506f1","infoHashBuffer":{"type":"Buffer","data":[28,125,223,239,223,124,81,180,99,174,143,36,93,160,193,1,141,117,6,241]},"announce":[],"urlList":[]}}